<svg xmlns="http://www.w3.org/2000/svg" data-name="Layer 1" viewBox="0 0 100 125" x="0px" y="0px"><title>01</title><g data-name="Group"><path data-name="Compound Path" d="M83.8,19.3H66.5A19.9,19.9,0,0,0,55,23l-1.8,1.3L51.4,23a20,20,0,0,0-11.6-3.7H22.6a5,5,0,0,0-5,5V70.5a5,5,0,0,0,5,5H39.8a17.4,17.4,0,0,1,10.4,3.3l2.4,1.7.6.2.6-.2,2.4-1.7a17.3,17.3,0,0,1,10.3-3.3H83.8a5,5,0,0,0,5-5V24.3A5,5,0,0,0,83.8,19.3Zm-44,54.2H22.6a3,3,0,0,1-3-3V24.3a3,3,0,0,1,3-3H39.8a18.1,18.1,0,0,1,10.4,3.3l2,1.5V77.7l-.8-.6A19.9,19.9,0,0,0,39.8,73.5Zm47-3a3,3,0,0,1-3,3H66.5A19.8,19.8,0,0,0,55,77.1l-.8.6V26.1l2-1.5a18,18,0,0,1,10.3-3.3H83.8a3,3,0,0,1,3,3Z"/></g></svg>