<svg xmlns="http://www.w3.org/2000/svg" xmlns:xlink="http://www.w3.org/1999/xlink" version="1.1" x="0px" y="0px" viewBox="0 0 100 125" enable-background="new 0 0 100 100" xml:space="preserve"><g><path d="M76.374,91.592H23.626c-0.923,0-1.669-0.746-1.669-1.668V5.577c0-0.922,0.746-1.668,1.669-1.668h52.748   c0.923,0,1.669,0.746,1.669,1.668v84.347C78.043,90.846,77.297,91.592,76.374,91.592z M25.294,88.255h49.412V7.245H25.294V88.255z"/></g><g><g><path d="M39.712,96.096H28.844c-0.923,0-1.669-0.746-1.669-1.668v-4.504c0-0.923,0.746-1.669,1.669-1.669h10.868    c0.922,0,1.668,0.746,1.668,1.669v4.504C41.38,95.35,40.634,96.096,39.712,96.096z M30.512,92.758h7.531v-1.166h-7.531V92.758z"/></g><g><path d="M71.156,96.096H60.288c-0.922,0-1.668-0.746-1.668-1.668v-4.504c0-0.923,0.746-1.669,1.668-1.669h10.868    c0.923,0,1.669,0.746,1.669,1.669v4.504C72.825,95.35,72.079,96.096,71.156,96.096z M61.957,92.758h7.531v-1.166h-7.531V92.758z"/></g></g><g><path d="M37.277,12.459H23.626c-0.923,0-1.669-0.746-1.669-1.668s0.746-1.668,1.669-1.668h13.104l6.651-4.889   c0.737-0.551,1.786-0.394,2.33,0.355c0.548,0.743,0.388,1.786-0.354,2.33l-7.092,5.214C37.978,12.346,37.633,12.459,37.277,12.459z   "/></g></svg>