<svg xmlns="http://www.w3.org/2000/svg" viewBox="0 0 64 80" x="0px" y="0px"><title>Artboard 1 copy 3</title><path d="M4,57.8A3.45,3.45,0,0,0,7.23,60H39.77A3.45,3.45,0,0,0,43,57.8l1.55-4a7.2,7.2,0,0,0,.48-2.6V49h9a8,8,0,0,0,8-8V23a8,8,0,0,0-8-8H45V10a1,1,0,0,0-1-1H3a1,1,0,0,0-1,1V51.18a7.2,7.2,0,0,0,.48,2.6ZM45,23h5.87A3.34,3.34,0,0,1,54,26.51V39.4A1.5,1.5,0,0,1,52.62,41H50a1,1,0,0,0,0,2h2.62A3.5,3.5,0,0,0,56,39.4V26.51A5.33,5.33,0,0,0,50.87,21H45V17h9a6,6,0,0,1,6,6V41a6,6,0,0,1-6,6H45ZM42.65,53.06l-1.55,4a1.44,1.44,0,0,1-1.33.92H7.23a1.44,1.44,0,0,1-1.33-.92l-1.55-4A5.18,5.18,0,0,1,4.08,52H42.92A5.18,5.18,0,0,1,42.65,53.06ZM4,11H43V50H4Z"/></svg>