<svg xmlns="http://www.w3.org/2000/svg" data-name="Layer 1" viewBox="0 0 512 640" x="0px" y="0px"><title>Towel</title><path d="M472.136,119H431v-7.284a52.244,52.244,0,0,0-52.189-52.155c-.26,0-.811,0-.811.005V60H133.436A52.137,52.137,0,0,0,81,112.1V119H39.864C27.093,119,16.7,129.728,16.7,142.5S27.093,166,39.864,166H81V446.439c0,3.314,2.579,5.561,5.893,5.561H332.8c3.313,0,6.2-2.247,6.2-5.561V383.357l86.206-.732a5.871,5.871,0,0,0,5.794-6V166h41.136c12.771,0,23.162-10.728,23.162-23.5S484.907,119,472.136,119ZM379,71.561a40.068,40.068,0,0,1,40,40.155V119H339v-7.284A40.068,40.068,0,0,1,379,71.561ZM39.864,154a11.505,11.505,0,0,1,0-23H81v23ZM327,111.716V440H93V112.1A40.124,40.124,0,0,1,133.436,72H345.7C334.161,81,327,95.581,327,111.716Zm92,258.959-80,.681V166h80ZM472.136,154H339V131H472.136a11.505,11.505,0,0,1,0,23Z"/></svg>